<mxfile host="app.diagrams.net" modified="2023-09-19T11:14:23.065Z" agent="Mozilla/5.0 (X11; Linux x86_64) AppleWebKit/537.36 (KHTML, like Gecko) Chrome/117.0.0.0 Safari/537.36" etag="xpDK-HNBtS3861I35ZdR" version="21.7.5" type="device">
  <diagram name="Page-1" id="-o7ySIpYyoJ9cUpSXN9H">
    <mxGraphModel dx="1364" dy="803" grid="1" gridSize="10" guides="1" tooltips="1" connect="1" arrows="1" fold="1" page="1" pageScale="1" pageWidth="850" pageHeight="1100" math="0" shadow="0">
      <root>
        <mxCell id="0" />
        <mxCell id="1" parent="0" />
        <mxCell id="-xsNIPRGNn4FhCSq07wE-5" style="edgeStyle=orthogonalEdgeStyle;rounded=0;orthogonalLoop=1;jettySize=auto;html=1;entryX=0.5;entryY=0;entryDx=0;entryDy=0;" edge="1" parent="1" source="-xsNIPRGNn4FhCSq07wE-1" target="-xsNIPRGNn4FhCSq07wE-2">
          <mxGeometry relative="1" as="geometry" />
        </mxCell>
        <mxCell id="-xsNIPRGNn4FhCSq07wE-1" value="Autenticação" style="rounded=0;whiteSpace=wrap;html=1;" vertex="1" parent="1">
          <mxGeometry x="130" y="80" width="120" height="60" as="geometry" />
        </mxCell>
        <mxCell id="-xsNIPRGNn4FhCSq07wE-6" style="edgeStyle=orthogonalEdgeStyle;rounded=0;orthogonalLoop=1;jettySize=auto;html=1;entryX=0.5;entryY=0;entryDx=0;entryDy=0;" edge="1" parent="1" source="-xsNIPRGNn4FhCSq07wE-2" target="-xsNIPRGNn4FhCSq07wE-3">
          <mxGeometry relative="1" as="geometry" />
        </mxCell>
        <mxCell id="-xsNIPRGNn4FhCSq07wE-2" value="Panels" style="rounded=0;whiteSpace=wrap;html=1;" vertex="1" parent="1">
          <mxGeometry x="130" y="200" width="120" height="60" as="geometry" />
        </mxCell>
        <mxCell id="-xsNIPRGNn4FhCSq07wE-7" style="edgeStyle=orthogonalEdgeStyle;rounded=0;orthogonalLoop=1;jettySize=auto;html=1;entryX=0;entryY=0.5;entryDx=0;entryDy=0;" edge="1" parent="1" source="-xsNIPRGNn4FhCSq07wE-3" target="-xsNIPRGNn4FhCSq07wE-4">
          <mxGeometry relative="1" as="geometry" />
        </mxCell>
        <mxCell id="-xsNIPRGNn4FhCSq07wE-3" value="Panels/id" style="rounded=0;whiteSpace=wrap;html=1;" vertex="1" parent="1">
          <mxGeometry x="130" y="330" width="120" height="60" as="geometry" />
        </mxCell>
        <mxCell id="-xsNIPRGNn4FhCSq07wE-4" value="Kudos" style="rounded=0;whiteSpace=wrap;html=1;" vertex="1" parent="1">
          <mxGeometry x="355" y="330" width="120" height="60" as="geometry" />
        </mxCell>
        <mxCell id="-xsNIPRGNn4FhCSq07wE-9" style="edgeStyle=orthogonalEdgeStyle;rounded=0;orthogonalLoop=1;jettySize=auto;html=1;entryX=1;entryY=0.5;entryDx=0;entryDy=0;" edge="1" parent="1" source="-xsNIPRGNn4FhCSq07wE-8" target="-xsNIPRGNn4FhCSq07wE-1">
          <mxGeometry relative="1" as="geometry" />
        </mxCell>
        <mxCell id="-xsNIPRGNn4FhCSq07wE-8" value="&lt;p style=&quot;&quot;&gt;&lt;span style=&quot;background-color: initial; font-size: 12px; font-weight: normal;&quot;&gt;Lorem ipsum dolor sit amet, consectetur adipisicing elit, sed do eiusmod tempor incididunt ut labore et dolore magna aliqua.&lt;/span&gt;&lt;/p&gt;" style="text;html=1;strokeColor=#d6b656;fillColor=#fff2cc;spacing=15;spacingTop=-20;whiteSpace=wrap;overflow=hidden;rounded=1;glass=1;shadow=0;sketch=1;curveFitting=1;jiggle=2;" vertex="1" parent="1">
          <mxGeometry x="320" y="60" width="190" height="100" as="geometry" />
        </mxCell>
      </root>
    </mxGraphModel>
  </diagram>
</mxfile>
